<svg width="24" height="24" viewBox="0 0 24 24" fill="none" xmlns="http://www.w3.org/2000/svg">
  <path fill-rule="evenodd" clip-rule="evenodd" d="M1 4C1 2.89543 1.89543 2 3 2H21C22.1046 2 23 2.89543 23 4V20C23 21.1046 22.1046 22 21 22H3C1.89543 22 1 21.1046 1 20V4ZM9 4H21V20H9V4ZM4 6C3.44772 6 3 6.44772 3 7C3 7.55228 3.44772 8 4 8H6C6.55228 8 7 7.55228 7 7C7 6.44772 6.55228 6 6 6H4ZM3 11C3 10.4477 3.44772 10 4 10H6C6.55228 10 7 10.4477 7 11C7 11.5523 6.55228 12 6 12H4C3.44772 12 3 11.5523 3 11ZM4 14C3.44772 14 3 14.4477 3 15C3 15.5523 3.44772 16 4 16H6C6.55228 16 7 15.5523 7 15C7 14.4477 6.55228 14 6 14H4Z" fill="currentColor"/>
</svg>
